<?xml version="1.0"?>
<svg xmlns="http://www.w3.org/2000/svg" xmlns:xlink="http://www.w3.org/1999/xlink" xmlns:svgjs="http://svgjs.com/svgjs" version="1.1" width="512" height="512" x="0" y="0" viewBox="0 0 64 64" style="enable-background:new 0 0 512 512" xml:space="preserve" class=""><g><path xmlns="http://www.w3.org/2000/svg" d="m6 5h2v2h-2z" fill="#e6ebf7" data-original="#000000" style=""/><path xmlns="http://www.w3.org/2000/svg" d="m10 5h2v2h-2z" fill="#e6ebf7" data-original="#000000" style=""/><path xmlns="http://www.w3.org/2000/svg" d="m14 5h2v2h-2z" fill="#e6ebf7" data-original="#000000" style=""/><path xmlns="http://www.w3.org/2000/svg" d="m7 30h22a1 1 0 0 0 1-1v-16a1 1 0 0 0 -1-1h-22a1 1 0 0 0 -1 1v16a1 1 0 0 0 1 1zm1-16h20v14h-20z" fill="#e6ebf7" data-original="#000000" style=""/><path xmlns="http://www.w3.org/2000/svg" d="m7 49h22a1 1 0 0 0 1-1v-15a1 1 0 0 0 -1-1h-22a1 1 0 0 0 -1 1v15a1 1 0 0 0 1 1zm1-15h20v13h-20z" fill="#e6ebf7" data-original="#000000" style=""/><path xmlns="http://www.w3.org/2000/svg" d="m47 49h2v2h-2z" fill="#e6ebf7" data-original="#000000" style=""/><path xmlns="http://www.w3.org/2000/svg" d="m55 49h2v2h-2z" fill="#e6ebf7" data-original="#000000" style=""/><path xmlns="http://www.w3.org/2000/svg" d="m52 56a2 2 0 0 1 -2-2h-2a4 4 0 0 0 8 0h-2a2 2 0 0 1 -2 2z" fill="#e6ebf7" data-original="#000000" style=""/><path xmlns="http://www.w3.org/2000/svg" d="m22.5 20.132-7-4a1 1 0 0 0 -1.5.868v8a1 1 0 0 0 1.5.868l7-4a1 1 0 0 0 0-1.736zm-6.5 3.144v-4.552l3.984 2.276z" fill="#e6ebf7" data-original="#000000" style=""/><path xmlns="http://www.w3.org/2000/svg" d="m53 31a1 1 0 0 0 .768-1.641l-5-6a1 1 0 0 0 -.723-.359.965.965 0 0 0 -.752.292l-1.467 1.468-2.067-2.41a1.031 1.031 0 0 0 -1.518 0l-6 7a1 1 0 0 0 .759 1.65zm-13.826-2 3.826-4.464 3.826 4.464zm8.759-3.519 2.932 3.519h-1.405l-2.329-2.717z" fill="#e6ebf7" data-original="#000000" style=""/><path xmlns="http://www.w3.org/2000/svg" d="m61 2h-58a1 1 0 0 0 -1 1v49a1 1 0 0 0 1 1h39.051a10 10 0 0 0 19.949-1v-49a1 1 0 0 0 -1-1zm-9 58a8 8 0 1 1 8-8 8.009 8.009 0 0 1 -8 8zm-8.647-13h-9.353v-33h22v28.841a9.965 9.965 0 0 0 -12.647 4.159zm16.647-.974a10.088 10.088 0 0 0 -2-2.007v-31.019a1 1 0 0 0 -1-1h-24a1 1 0 0 0 -1 1v35a1 1 0 0 0 1 1h9.461a9.886 9.886 0 0 0 -.41 2h-38.051v-41h56zm0-38.026h-56v-4h56z" fill="#e6ebf7" data-original="#000000" style=""/><path xmlns="http://www.w3.org/2000/svg" d="m10 36h16v2h-16z" fill="#e6ebf7" data-original="#000000" style=""/><path xmlns="http://www.w3.org/2000/svg" d="m10 40h16v2h-16z" fill="#e6ebf7" data-original="#000000" style=""/></g></svg>
